# xmcd
#
# Track frame offsets:
#	150
#	13257
#	23335
#	33804
#	45451
#	55596
#	71244
#	82771
#	92099
#	104243
#	117517
#	129411
#	146059
#	157136
#	173053
#
# Disc length: 2458 seconds
#
# Revision: 0
# Processed by: cddbd v1.5.2PL0 Copyright (c) Steve Scherf et al.
# Submitted via: audiograbber 1.83.01
#
DISCID=c409980f
DTITLE=Various Artist - Mega Country Vol. II CD1
DYEAR=1998
DGENRE=Country
TTITLE0=Don Williams - Where do I go from here?
TTITLE1=Carl Perkins - Daddy sang bass
TTITLE2=Patsy Cline - Honky tonk merry go round
TTITLE3=Jim Reeves - Mexican Joe
TTITLE4=Billie Jo Spears - It makes no difference now
TTITLE5=Charly Pride - Let me live in the light of his love
TTITLE6=Brenda Lee - Silver threads and golden needles
TTITLE7=Dave Dudley - Six days on the road
TTITLE8=Anne Murray - All the tim
TTITLE9=George Jones - Almost persuaded
TTITLE10=Johnny Cash - Sixteen tons
TTITLE11=Ferlin Husky - For the good times
TTITLE12=Jo Anne Houston - The race is on
TTITLE13=Jerry Lee Lewis - She even woke me up to say goodbye
TTITLE14=Roy Drusky - Blue eyes crying in the rain
EXTD=
EXTT0=
EXTT1=
EXTT2=
EXTT3=
EXTT4=
EXTT5=
EXTT6=
EXTT7=
EXTT8=
EXTT9=
EXTT10=
EXTT11=
EXTT12=
EXTT13=
EXTT14=
PLAYORDER=
